<mxfile host="app.diagrams.net" modified="2023-12-12T16:14:49.953Z" agent="Mozilla/5.0 (X11; Linux x86_64) AppleWebKit/537.36 (KHTML, like Gecko) Chrome/118.0.0.0 Safari/537.36" etag="Sf_6P5sLl9TCcIZCXAhY" version="22.1.7" type="device">
  <diagram name="Page-1" id="RYLGLMM0o-4S9DTXbnTB">
    <mxGraphModel dx="1434" dy="772" grid="1" gridSize="10" guides="1" tooltips="1" connect="1" arrows="1" fold="1" page="1" pageScale="1" pageWidth="827" pageHeight="1169" math="0" shadow="0">
      <root>
        <mxCell id="0" />
        <mxCell id="1" parent="0" />
        <mxCell id="B5EVlYLvD9mBzw3KPdCJ-1" value="q0" style="ellipse;whiteSpace=wrap;html=1;aspect=fixed;fillColor=none;fontSize=16;" vertex="1" parent="1">
          <mxGeometry x="120" y="320" width="80" height="80" as="geometry" />
        </mxCell>
        <mxCell id="B5EVlYLvD9mBzw3KPdCJ-2" value="q1" style="ellipse;whiteSpace=wrap;html=1;aspect=fixed;fillColor=none;fontSize=16;" vertex="1" parent="1">
          <mxGeometry x="280" y="320" width="80" height="80" as="geometry" />
        </mxCell>
        <mxCell id="B5EVlYLvD9mBzw3KPdCJ-3" value="q2" style="ellipse;whiteSpace=wrap;html=1;aspect=fixed;fillColor=none;fontSize=16;" vertex="1" parent="1">
          <mxGeometry x="440" y="320" width="80" height="80" as="geometry" />
        </mxCell>
        <mxCell id="B5EVlYLvD9mBzw3KPdCJ-4" value="q3" style="ellipse;whiteSpace=wrap;html=1;aspect=fixed;fillColor=none;fontSize=16;" vertex="1" parent="1">
          <mxGeometry x="600" y="320" width="80" height="80" as="geometry" />
        </mxCell>
        <mxCell id="B5EVlYLvD9mBzw3KPdCJ-5" value="q4" style="ellipse;whiteSpace=wrap;html=1;aspect=fixed;fillColor=none;fontSize=16;" vertex="1" parent="1">
          <mxGeometry x="760" y="320" width="80" height="80" as="geometry" />
        </mxCell>
        <mxCell id="B5EVlYLvD9mBzw3KPdCJ-6" value="q5" style="ellipse;whiteSpace=wrap;html=1;aspect=fixed;fillColor=none;fontSize=16;" vertex="1" parent="1">
          <mxGeometry x="280" y="480" width="80" height="80" as="geometry" />
        </mxCell>
        <mxCell id="B5EVlYLvD9mBzw3KPdCJ-7" value="/" style="endArrow=classic;html=1;rounded=0;exitX=1;exitY=0.5;exitDx=0;exitDy=0;entryX=0;entryY=0.5;entryDx=0;entryDy=0;fontSize=16;labelPosition=center;verticalLabelPosition=top;align=center;verticalAlign=bottom;" edge="1" parent="1" source="B5EVlYLvD9mBzw3KPdCJ-1" target="B5EVlYLvD9mBzw3KPdCJ-2">
          <mxGeometry width="50" height="50" relative="1" as="geometry">
            <mxPoint x="570" y="420" as="sourcePoint" />
            <mxPoint x="260" y="280" as="targetPoint" />
          </mxGeometry>
        </mxCell>
        <mxCell id="B5EVlYLvD9mBzw3KPdCJ-8" value="*" style="endArrow=classic;html=1;rounded=0;exitX=1;exitY=0.5;exitDx=0;exitDy=0;fontSize=16;labelPosition=center;verticalLabelPosition=top;align=center;verticalAlign=bottom;" edge="1" parent="1" source="B5EVlYLvD9mBzw3KPdCJ-2">
          <mxGeometry width="50" height="50" relative="1" as="geometry">
            <mxPoint x="570" y="420" as="sourcePoint" />
            <mxPoint x="440" y="360" as="targetPoint" />
          </mxGeometry>
        </mxCell>
        <mxCell id="B5EVlYLvD9mBzw3KPdCJ-9" value="/" style="endArrow=classic;html=1;rounded=0;exitX=1;exitY=0.5;exitDx=0;exitDy=0;entryX=0;entryY=0.5;entryDx=0;entryDy=0;fontSize=16;labelPosition=center;verticalLabelPosition=top;align=center;verticalAlign=bottom;" edge="1" parent="1" source="B5EVlYLvD9mBzw3KPdCJ-4" target="B5EVlYLvD9mBzw3KPdCJ-5">
          <mxGeometry width="50" height="50" relative="1" as="geometry">
            <mxPoint x="570" y="420" as="sourcePoint" />
            <mxPoint x="620" y="370" as="targetPoint" />
          </mxGeometry>
        </mxCell>
        <mxCell id="B5EVlYLvD9mBzw3KPdCJ-14" value="*" style="endArrow=classic;html=1;exitX=1;exitY=0;exitDx=0;exitDy=0;entryX=0;entryY=0;entryDx=0;entryDy=0;curved=1;fontSize=16;labelPosition=center;verticalLabelPosition=top;align=center;verticalAlign=bottom;" edge="1" parent="1" source="B5EVlYLvD9mBzw3KPdCJ-3" target="B5EVlYLvD9mBzw3KPdCJ-4">
          <mxGeometry width="50" height="50" relative="1" as="geometry">
            <mxPoint x="570" y="420" as="sourcePoint" />
            <mxPoint x="620" y="370" as="targetPoint" />
            <Array as="points">
              <mxPoint x="560" y="310" />
            </Array>
          </mxGeometry>
        </mxCell>
        <mxCell id="B5EVlYLvD9mBzw3KPdCJ-15" value="a" style="endArrow=classic;html=1;entryX=1;entryY=1;entryDx=0;entryDy=0;exitX=0;exitY=1;exitDx=0;exitDy=0;curved=1;fontSize=16;labelPosition=center;verticalLabelPosition=bottom;align=center;verticalAlign=top;" edge="1" parent="1" source="B5EVlYLvD9mBzw3KPdCJ-4" target="B5EVlYLvD9mBzw3KPdCJ-3">
          <mxGeometry width="50" height="50" relative="1" as="geometry">
            <mxPoint x="570" y="420" as="sourcePoint" />
            <mxPoint x="620" y="370" as="targetPoint" />
            <Array as="points">
              <mxPoint x="560" y="410" />
            </Array>
          </mxGeometry>
        </mxCell>
        <mxCell id="B5EVlYLvD9mBzw3KPdCJ-16" value="" style="endArrow=classic;html=1;rounded=0;entryX=0;entryY=0.5;entryDx=0;entryDy=0;" edge="1" parent="1" target="B5EVlYLvD9mBzw3KPdCJ-1">
          <mxGeometry width="50" height="50" relative="1" as="geometry">
            <mxPoint x="40" y="360" as="sourcePoint" />
            <mxPoint x="620" y="370" as="targetPoint" />
          </mxGeometry>
        </mxCell>
        <mxCell id="B5EVlYLvD9mBzw3KPdCJ-17" value="" style="edgeStyle=orthogonalEdgeStyle;orthogonalLoop=1;jettySize=auto;html=1;exitX=0;exitY=1;exitDx=0;exitDy=0;curved=1;entryX=0.5;entryY=1;entryDx=0;entryDy=0;fontSize=16;labelPosition=right;verticalLabelPosition=middle;align=left;verticalAlign=middle;" edge="1" parent="1">
          <mxGeometry relative="1" as="geometry">
            <mxPoint x="480" y="402" as="targetPoint" />
            <Array as="points">
              <mxPoint x="420" y="390" />
              <mxPoint x="420" y="452" />
              <mxPoint x="480" y="452" />
            </Array>
            <mxPoint x="452" y="390" as="sourcePoint" />
          </mxGeometry>
        </mxCell>
        <mxCell id="B5EVlYLvD9mBzw3KPdCJ-18" value="" style="edgeStyle=orthogonalEdgeStyle;orthogonalLoop=1;jettySize=auto;html=1;exitX=1;exitY=1;exitDx=0;exitDy=0;curved=1;entryX=0.5;entryY=1;entryDx=0;entryDy=0;fontSize=16;labelPosition=left;verticalLabelPosition=middle;align=right;verticalAlign=middle;" edge="1" parent="1">
          <mxGeometry relative="1" as="geometry">
            <mxPoint x="640" y="402" as="targetPoint" />
            <Array as="points">
              <mxPoint x="700" y="390" />
              <mxPoint x="700" y="452" />
              <mxPoint x="640" y="452" />
            </Array>
            <mxPoint x="668" y="390" as="sourcePoint" />
          </mxGeometry>
        </mxCell>
        <mxCell id="B5EVlYLvD9mBzw3KPdCJ-19" value="" style="endArrow=classic;html=1;exitX=0.5;exitY=1;exitDx=0;exitDy=0;entryX=0;entryY=0.5;entryDx=0;entryDy=0;curved=1;" edge="1" parent="1" source="B5EVlYLvD9mBzw3KPdCJ-1" target="B5EVlYLvD9mBzw3KPdCJ-6">
          <mxGeometry width="50" height="50" relative="1" as="geometry">
            <mxPoint x="590" y="420" as="sourcePoint" />
            <mxPoint x="640" y="370" as="targetPoint" />
            <Array as="points">
              <mxPoint x="160" y="520" />
            </Array>
          </mxGeometry>
        </mxCell>
        <mxCell id="B5EVlYLvD9mBzw3KPdCJ-21" value="" style="endArrow=classic;html=1;exitX=0.5;exitY=1;exitDx=0;exitDy=0;entryX=1;entryY=0.5;entryDx=0;entryDy=0;curved=1;" edge="1" parent="1" source="B5EVlYLvD9mBzw3KPdCJ-5" target="B5EVlYLvD9mBzw3KPdCJ-6">
          <mxGeometry width="50" height="50" relative="1" as="geometry">
            <mxPoint x="590" y="420" as="sourcePoint" />
            <mxPoint x="640" y="370" as="targetPoint" />
            <Array as="points">
              <mxPoint x="800" y="530" />
            </Array>
          </mxGeometry>
        </mxCell>
        <mxCell id="B5EVlYLvD9mBzw3KPdCJ-22" value="" style="edgeStyle=orthogonalEdgeStyle;orthogonalLoop=1;jettySize=auto;html=1;exitX=0;exitY=1;exitDx=0;exitDy=0;curved=1;entryX=0.5;entryY=1;entryDx=0;entryDy=0;fontSize=16;labelPosition=right;verticalLabelPosition=middle;align=left;verticalAlign=middle;" edge="1" parent="1">
          <mxGeometry relative="1" as="geometry">
            <mxPoint x="320" y="562" as="targetPoint" />
            <Array as="points">
              <mxPoint x="260" y="550" />
              <mxPoint x="260" y="612" />
              <mxPoint x="320" y="612" />
            </Array>
            <mxPoint x="292" y="550" as="sourcePoint" />
          </mxGeometry>
        </mxCell>
        <mxCell id="B5EVlYLvD9mBzw3KPdCJ-23" value="" style="endArrow=classic;html=1;rounded=0;exitX=0.5;exitY=1;exitDx=0;exitDy=0;entryX=0.5;entryY=0;entryDx=0;entryDy=0;" edge="1" parent="1" source="B5EVlYLvD9mBzw3KPdCJ-2" target="B5EVlYLvD9mBzw3KPdCJ-6">
          <mxGeometry width="50" height="50" relative="1" as="geometry">
            <mxPoint x="590" y="580" as="sourcePoint" />
            <mxPoint x="640" y="530" as="targetPoint" />
          </mxGeometry>
        </mxCell>
        <mxCell id="B5EVlYLvD9mBzw3KPdCJ-24" value="" style="ellipse;whiteSpace=wrap;html=1;aspect=fixed;fillColor=none;" vertex="1" parent="1">
          <mxGeometry x="770" y="330" width="60" height="60" as="geometry" />
        </mxCell>
        <mxCell id="B5EVlYLvD9mBzw3KPdCJ-25" value="a,*" style="text;html=1;strokeColor=none;fillColor=none;align=center;verticalAlign=middle;whiteSpace=wrap;rounded=0;fontSize=16;" vertex="1" parent="1">
          <mxGeometry x="170" y="450" width="60" height="30" as="geometry" />
        </mxCell>
        <mxCell id="B5EVlYLvD9mBzw3KPdCJ-26" value="a,/" style="text;html=1;strokeColor=none;fillColor=none;align=center;verticalAlign=middle;whiteSpace=wrap;rounded=0;fontSize=16;" vertex="1" parent="1">
          <mxGeometry x="310" y="421" width="60" height="30" as="geometry" />
        </mxCell>
        <mxCell id="B5EVlYLvD9mBzw3KPdCJ-27" value="a,*,/" style="text;html=1;strokeColor=none;fillColor=none;align=center;verticalAlign=middle;whiteSpace=wrap;rounded=0;fontSize=16;" vertex="1" parent="1">
          <mxGeometry x="260" y="570" width="60" height="30" as="geometry" />
        </mxCell>
        <mxCell id="B5EVlYLvD9mBzw3KPdCJ-28" value="a,*,/" style="text;html=1;strokeColor=none;fillColor=none;align=center;verticalAlign=middle;whiteSpace=wrap;rounded=0;fontSize=16;" vertex="1" parent="1">
          <mxGeometry x="460" y="489" width="60" height="30" as="geometry" />
        </mxCell>
        <mxCell id="B5EVlYLvD9mBzw3KPdCJ-29" value="a,/" style="text;html=1;strokeColor=none;fillColor=none;align=center;verticalAlign=middle;whiteSpace=wrap;rounded=0;fontSize=16;" vertex="1" parent="1">
          <mxGeometry x="419" y="410" width="60" height="30" as="geometry" />
        </mxCell>
        <mxCell id="B5EVlYLvD9mBzw3KPdCJ-30" value="*" style="text;html=1;strokeColor=none;fillColor=none;align=center;verticalAlign=middle;whiteSpace=wrap;rounded=0;fontSize=16;" vertex="1" parent="1">
          <mxGeometry x="646" y="416" width="60" height="30" as="geometry" />
        </mxCell>
        <mxCell id="B5EVlYLvD9mBzw3KPdCJ-31" value="" style="rounded=0;whiteSpace=wrap;html=1;fillColor=none;strokeColor=#fffffff;" vertex="1" parent="1">
          <mxGeometry y="260" width="880" height="390" as="geometry" />
        </mxCell>
      </root>
    </mxGraphModel>
  </diagram>
</mxfile>
